<?xml version="1.0" encoding="utf-8"?>
<!-- Generator: Adobe Illustrator 18.1.1, SVG Export Plug-In . SVG Version: 6.00 Build 0)  -->
<!DOCTYPE svg PUBLIC "-//W3C//DTD SVG 1.1//EN" "http://www.w3.org/Graphics/SVG/1.1/DTD/svg11.dtd">
<svg version="1.1" xmlns="http://www.w3.org/2000/svg" xmlns:xlink="http://www.w3.org/1999/xlink" x="0px" y="0px"
	 viewBox="0 0 83.3 95" enable-background="new 0 0 83.3 95" xml:space="preserve">
<g id="Layer_1" display="none">
</g>
<g id="Layer_2">
	<g>
		<g>
			<g>
				<path fill-rule="evenodd" clip-rule="evenodd" fill="#010101" d="M74.7,30.8c-3,0-5.4,2.5-5.4,5.5v21.6c0,3,2.4,5.5,5.4,5.5
					c3,0,5.4-2.5,5.4-5.5V36.3C80.1,33.3,77.7,30.8,74.7,30.8z M9.1,30.8c-3,0-5.4,2.5-5.4,5.5v21.6c0,3,2.4,5.5,5.4,5.5
					c3,0,5.4-2.5,5.4-5.5V36.3C14.5,33.3,12.1,30.8,9.1,30.8z"/>
			</g>
			<g>
				<path fill-rule="evenodd" clip-rule="evenodd" fill="#010101" d="M17.8,31v39.4c0,2.3,1.9,4.2,4.2,4.2h4.8v12
					c0,3,2.4,5.5,5.4,5.5c3,0,5.4-2.5,5.4-5.5v-12h8.5v12c0,3,2.4,5.5,5.4,5.5c3,0,5.4-2.5,5.4-5.5v-12h4.8c2.3,0,4.2-1.9,4.2-4.2
					V31H17.8z"/>
			</g>
			<g>
				<path fill-rule="evenodd" clip-rule="evenodd" fill="#010101" d="M53.3,10.6l4.5-6.5c0.3-0.4,0.2-0.9-0.1-1.1
					c-0.3-0.2-0.8-0.1-1.1,0.3l-4.6,6.7c-3.1-1.2-6.5-1.9-10-1.9c-3.6,0-7,0.7-10,1.9l-4.6-6.7c-0.3-0.4-0.8-0.5-1.1-0.3
					c-0.3,0.2-0.4,0.7-0.1,1.1l4.5,6.5c-7.1,3.3-12.1,9.6-12.7,16.9h48.4C65.4,20.1,60.5,13.9,53.3,10.6z M31.7,20.8
					c-1.5,0-2.7-1.2-2.7-2.7c0-1.5,1.2-2.7,2.7-2.7c1.5,0,2.7,1.2,2.7,2.7C34.4,19.6,33.2,20.8,31.7,20.8z M52.4,20.8
					c-1.5,0-2.7-1.2-2.7-2.7c0-1.5,1.2-2.7,2.7-2.7c1.5,0,2.7,1.2,2.7,2.7C55.1,19.6,53.9,20.8,52.4,20.8z"/>
			</g>
		</g>
	</g>
</g>
<g id="Layer_3">
</g>
</svg>
