<?xml version="1.0" encoding="utf-8"?>
<!-- Generator: Adobe Illustrator 18.1.1, SVG Export Plug-In . SVG Version: 6.00 Build 0)  -->
<!DOCTYPE svg PUBLIC "-//W3C//DTD SVG 1.1//EN" "http://www.w3.org/Graphics/SVG/1.1/DTD/svg11.dtd">
<svg version="1.1" xmlns="http://www.w3.org/2000/svg" xmlns:xlink="http://www.w3.org/1999/xlink" x="0px" y="0px"
	 viewBox="0 0 260.3 338.6" enable-background="new 0 0 260.3 338.6" xml:space="preserve">
<g id="Layer_1" display="none">
</g>
<g id="Layer_2">
	<path fill="#383839" d="M217.9,305.5H44.6c-6.6,0-12-5.4-12-12V36.1c0-6.6,5.4-12,12-12h173.3c6.6,0,12,5.4,12,12v257.5
		C229.9,300.1,224.5,305.5,217.9,305.5z"/>
	<circle fill="none" stroke="#FFFFFF" stroke-width="2" stroke-miterlimit="10" cx="131.2" cy="286.3" r="7.8"/>
	<path fill="none" stroke="#000000" stroke-width="6.8429" stroke-miterlimit="10" d="M217.9,305.5H44.6c-6.6,0-12-5.4-12-12V36.1
		c0-6.6,5.4-12,12-12h173.3c6.6,0,12,5.4,12,12v257.5C229.9,300.1,224.5,305.5,217.9,305.5z"/>
	<rect x="41.3" y="50.7" fill="#FFFFFF" width="179.7" height="214"/>
	<path d="M149.2,40h-36c-1.3,0-2.3-1-2.3-2.3v0c0-1.3,1.1-2.3,2.3-2.3h36c1.3,0,2.3,1,2.3,2.3v0C151.5,38.9,150.5,40,149.2,40z"/>
</g>
<g id="Layer_3">
</g>
</svg>
