<?xml version="1.0" encoding="utf-8"?>
<!-- Generator: Adobe Illustrator 18.1.1, SVG Export Plug-In . SVG Version: 6.00 Build 0)  -->
<!DOCTYPE svg PUBLIC "-//W3C//DTD SVG 1.1//EN" "http://www.w3.org/Graphics/SVG/1.1/DTD/svg11.dtd">
<svg version="1.1" xmlns="http://www.w3.org/2000/svg" xmlns:xlink="http://www.w3.org/1999/xlink" x="0px" y="0px"
	 viewBox="0 0 216 338.6" enable-background="new 0 0 216 338.6" xml:space="preserve">
<g id="Layer_1" display="none">
</g>
<g id="Layer_2">
	<path fill="#383839" d="M158.8,281.5H60.6c-6.6,0-12-5.4-12-12V62.1c0-6.6,5.4-12,12-12h98.2c6.6,0,12,5.4,12,12v207.5
		C170.8,276.1,165.4,281.5,158.8,281.5z"/>
	<circle fill="none" stroke="#FFFFFF" stroke-width="2" stroke-miterlimit="10" cx="110" cy="262.3" r="7.8"/>
	<path fill="none" stroke="#000000" stroke-width="5.3859" stroke-miterlimit="10" d="M158.8,281.5H60.6c-6.6,0-12-5.4-12-12V62.1
		c0-6.6,5.4-12,12-12h98.2c6.6,0,12,5.4,12,12v207.5C170.8,276.1,165.4,281.5,158.8,281.5z"/>
	<rect x="59.5" y="76.7" fill="#FFFFFF" width="100.4" height="164"/>
	<path d="M127.7,66h-36c-1.3,0-2.3-1-2.3-2.3v0c0-1.3,1.1-2.3,2.3-2.3h36c1.3,0,2.3,1,2.3,2.3v0C130,65,129,66,127.7,66z"/>
</g>
<g id="Layer_3">
</g>
</svg>
