<?xml version="1.0" encoding="utf-8"?>
<!-- Generator: Adobe Illustrator 18.1.1, SVG Export Plug-In . SVG Version: 6.00 Build 0)  -->
<!DOCTYPE svg PUBLIC "-//W3C//DTD SVG 1.1//EN" "http://www.w3.org/Graphics/SVG/1.1/DTD/svg11.dtd">
<svg version="1.1" xmlns="http://www.w3.org/2000/svg" xmlns:xlink="http://www.w3.org/1999/xlink" x="0px" y="0px"
	 viewBox="0 0 39.7 45" enable-background="new 0 0 39.7 45" xml:space="preserve">
<g id="Layer_1" display="none">
</g>
<g id="Layer_2">
	<g>
		<path fill="#2B1E30" d="M20.4,7.6c-3.2,0-6.4,0.8-7.9,3.2c-0.7,1.2-0.9,2.7-1.4,4c-0.9,2.4-2.8,3.9-5.1,4.8
			C5.2,20,4.9,21,5.3,21.8c0.7,1.4,1.3,2.8,2,4.3l4.6-1c0,0,4.3,0,8.5,0C20.4,19.3,22,13.2,20.4,7.6z"/>
		<path fill="#2B1E30" d="M20,7.6c2.6,0,5.8,0.8,7.2,3.2c0.7,1.2,0.9,2.7,1.4,4c0.9,2.4,2.8,3.9,5.1,4.8c0.8,0.3,1.2,1.3,0.8,2.1
			c-0.7,1.4-1.3,2.8-2,4.3L28,25c0,0-4.3,0-8.5,0C19.4,19.3,18.4,13.2,20,7.6z"/>
		<circle fill="#FFFFFF" cx="20.1" cy="27.1" r="8.2"/>
		<path fill="#2B1E30" d="M28.3,27.1c0,4.5-3.7,8.2-8.2,8.2s-8.2-3.7-8.2-8.2s0.3,6.8,8.2,0.8C26.8,35.3,28.3,22.6,28.3,27.1z"/>
		<circle fill="#2B1E30" cx="23.4" cy="24.8" r="2.3"/>
		<circle fill="#2B1E30" cx="16.3" cy="24.8" r="1.4"/>
		<path fill="#2B1E30" d="M25.4,20.9c2.2,2.3,2.1,4.6,1.3,6.5c-0.4,0.8-1.2,2-2.2,2c-0.5,0-1-0.3-1.5-0.6c-1-0.6-2.3-1.1-3.5-0.8
			c-1,0.3-1.9,1.1-2.9,1.1c-0.7,0-1.5-0.4-2-0.9c-0.9-0.9-2.8-3.4-0.2-6.9c-1.7,0.6-2.6,2.1-2.7,3.6c-0.2,1.9,0.2,3.8,1.1,5.4
			c0.3,0.6,0.8,1.2,1.4,1.4c2,0.5,3.3-2.2,5.3-2.2c1.6,0,2.7,0.4,3.7,1.2s2.4,1.8,3.7,0.4c2.2-2.5,1.4-7.9,1.4-7.9L25.4,20.9z"/>
		<polygon fill="#2B1E30" points="26.6,28.4 14,18.9 14.8,17.9 27.5,27.1 		"/>
		<path fill="#FFFFFF" d="M22.5,30.4c0-0.1-0.2-0.3-0.3-0.4c-0.6-0.5-1.4-0.8-2.2-0.7c-0.7,0-1.3,0.3-1.8,0.8
			c-0.2,0.2-0.3,0.4-0.1,0.6c0.1,0.1,0.2,0.2,0.4,0.2c1,0.3,2.1,0.4,3.1,0.3C22,31.2,22.7,31,22.5,30.4z"/>
	</g>
</g>
<g id="Layer_3">
</g>
</svg>
