<?xml version="1.0" encoding="utf-8"?>
<!-- Generator: Adobe Illustrator 18.1.1, SVG Export Plug-In . SVG Version: 6.00 Build 0)  -->
<!DOCTYPE svg PUBLIC "-//W3C//DTD SVG 1.1//EN" "http://www.w3.org/Graphics/SVG/1.1/DTD/svg11.dtd">
<svg version="1.1" xmlns="http://www.w3.org/2000/svg" xmlns:xlink="http://www.w3.org/1999/xlink" x="0px" y="0px"
	 viewBox="0 0 49 45" enable-background="new 0 0 49 45" xml:space="preserve">
<g id="Layer_1" display="none">
</g>
<g id="Layer_5">
</g>
<g id="Layer_2">
	<g>
		<path fill="#EE4942" d="M34.9,21.3c-0.6-0.6-1.4-1-2.3-1c-0.9,0-1.7,0.3-2.3,1c-0.6,0.6-1,1.4-1,2.3c0,0.7,0.2,1.3,0.6,1.9
			c0.4,0.6,0.9,1,1.6,1.2v1.1c0,1.2-0.5,2.2-1.6,3.1c-1.1,0.9-2.4,1.3-3.9,1.3c-1.5,0-2.8-0.4-3.9-1.3c-1.1-0.9-1.6-1.9-1.6-3.1
			v-2.2c-0.1,0-0.2,0-0.2,0h-1.9v2.3c0,1.8,0.7,3.4,2.2,4.6c1.5,1.3,3.3,1.9,5.4,1.9c2.1,0,3.9-0.6,5.4-1.9c1.5-1.3,2.2-2.8,2.2-4.6
			v-1.1c0.6-0.2,1.2-0.6,1.6-1.2c0.4-0.6,0.6-1.2,0.6-1.9C35.9,22.7,35.5,22,34.9,21.3z M33.3,24.4c-0.2,0.2-0.5,0.3-0.8,0.3
			c-0.3,0-0.6-0.1-0.8-0.3c-0.2-0.2-0.3-0.5-0.3-0.8c0-0.3,0.1-0.6,0.3-0.8c0.2-0.2,0.5-0.3,0.8-0.3c0.3,0,0.6,0.1,0.8,0.3
			c0.2,0.2,0.3,0.5,0.3,0.8C33.7,23.9,33.6,24.2,33.3,24.4z"/>
		<path fill="#EE4942" d="M19.9,27.4h0.2c0.3,0,0.6-0.1,0.9-0.2c0,0,0.1-0.1,0.1-0.1v0.1c1.1-0.3,2-0.8,2.7-1.5c1-1,1.5-2.1,1.5-3.4
			v-5.8c0-0.2-0.1-0.4-0.3-0.6c-0.1-0.1-4.2-0.1-4.2-0.1c0.1,0.5,0.1,0.5,0.1,0.7l-3.5,0c0,0,0-0.5,0-0.8c-1.2,0-4,0.1-4.1,0.2
			c-0.2,0.2-0.3,0.4-0.3,0.6v5.8c0,1.3,0.5,2.5,1.5,3.4c1,1,2.2,1.5,3.7,1.7C18.6,27,19.2,27.2,19.9,27.4z"/>
		<path fill="#EE4942" d="M16.9,10.6h-0.4c-0.9,0-1.6,0.7-1.6,1.6v4.1c0,0.9,0.7,1.6,1.6,1.6h0.4c0.9,0,1.6-0.7,1.6-1.6v-4.1
			C18.5,11.3,17.7,10.6,16.9,10.6z"/>
		<path fill="#EE4942" d="M22,10.6h-0.4c-0.9,0-1.6,0.7-1.6,1.6v4.1c0,0.9,0.7,1.6,1.6,1.6H22c0.9,0,1.6-0.7,1.6-1.6v-4.1
			C23.6,11.3,22.9,10.6,22,10.6z"/>
	</g>
</g>
<g id="Layer_4">
</g>
<g id="Layer_6" display="none">
</g>
<g id="Layer_3">
</g>
</svg>
