<?xml version="1.0" encoding="utf-8"?>
<!-- Generator: Adobe Illustrator 18.1.1, SVG Export Plug-In . SVG Version: 6.00 Build 0)  -->
<!DOCTYPE svg PUBLIC "-//W3C//DTD SVG 1.1//EN" "http://www.w3.org/Graphics/SVG/1.1/DTD/svg11.dtd">
<svg version="1.1" xmlns="http://www.w3.org/2000/svg" xmlns:xlink="http://www.w3.org/1999/xlink" x="0px" y="0px"
	 viewBox="0 0 147.5 63.7" enable-background="new 0 0 147.5 63.7" xml:space="preserve">
<g id="Layer_1" display="none">
</g>
<g id="Layer_2">
	<g>
		<path id="path3095" fill="#010101" d="M128.8,13.7L128.8,13.7L128.8,13.7c-9.3,0-16.8,7.5-16.8,16.8c0,4.7,1.9,8.9,4.9,11.9l1-1
			c-2.8-2.8-4.5-6.6-4.5-10.9c0-8.5,6.9-15.4,15.4-15.4h0l0,0c4.9,0,9.1-3.1,10.6-7.5c-0.4-0.2-0.9-0.4-1.3-0.6
			C136.7,11,133.1,13.7,128.8,13.7 M128.8,40.4L128.8,40.4L128.8,40.4c-5.4,0-9.8-4.4-9.8-9.8c0-5.4,4.4-9.8,9.8-9.8h0v-1.4h0
			c-6.2,0-11.2,5-11.2,11.2c0,6.2,5,11.2,11.2,11.2h0v0c6.3,0,11.6,4.7,12.5,10.7c0.4-0.3,0.9-0.5,1.3-0.8
			C141.3,45.3,135.6,40.4,128.8,40.4 M128.8,18L128.8,18c3.9,0,7.4-1.6,9.9-4.1l-1-1c-2.3,2.3-5.4,3.7-8.9,3.7l0,0h0
			c-7.8,0-14,6.3-14,14c0,7.8,6.3,14,14,14h0v-1.4h0c-7,0-12.6-5.7-12.6-12.6S121.8,18,128.8,18 M128.8,6.8L128.8,6.8l0-1.4h0
			c-14,0-25.3,11.3-25.3,25.3h1.4C104.9,17.4,115.6,6.8,128.8,6.8 M106.3,30.6h1.4c0-11.6,9.4-21,21-21h0V8.1h0
			C116.4,8.1,106.3,18.2,106.3,30.6 M128.8,12.4L128.8,12.4l0-1.4h0c-10.9,0-19.7,8.8-19.7,19.7h1.4
			C110.5,20.5,118.7,12.4,128.8,12.4"/>
		<path id="path3101" fill="#010101" d="M97.8,38.1c-3.1,0-6.1,1.7-7.1,4.7h-0.1v-12h0c0,0-2-0.3-4.4-0.3c-0.6,0-1.2,0.1-1.7,0.2v0
			c-2.6,0.5-4.2,2.4-4.2,4.9c0,1.2,0.3,2.1,0.7,2.8c-0.8-0.2-1.7-0.3-2.6-0.3c-3.4,0-7.2,1.2-7.2,5.1c0,4.1,3.4,5,6.9,5.7
			c3.4,0.7,6.8,1.2,6.8,4.6c0,3.5-3.7,4.2-6.3,4.2c-3.6,0-6.4-2.1-6.6-5.8h-1.5c0.1,4.7,3.5,7.1,8.1,7.1c3.5,0,7.8-1.2,7.8-5.5
			c0-4.2-3.1-5.1-7.1-5.9c-3.2-0.7-6.6-1.2-6.6-4.4c0-2.8,3-3.8,5.7-3.8c3.3,0,5.9,1.5,5.9,5.1h1.5c0-2.3-0.8-3.9-2.2-4.9
			c-0.8-0.7-2-2.2-2-4c0-2.2,1.7-3.3,3.2-3.6c0,0,0,0,0,0c0.8-0.1,1.1-0.1,1.5-0.1c1.6,0,2.9,0.2,2.9,0.2l0,0v26.5h1.5V47.7
			c0-4.9,2.7-8.3,7.2-8.3c5.4,0,5.7,4.5,5.7,6.5v12.6h1.5V46.1C105,43.7,104.9,38.1,97.8,38.1 M66,30.8h1.5v4H66V30.8z M60,38.5v-4
			c0-2.2,1.3-2.8,2.9-2.8c0.6,0,1.2,0.1,1.7,0.2v-1.3c-0.6-0.1-1.2-0.2-1.7-0.2c-2.4,0-4.4,1.2-4.4,4v4.1h-3.6v1.3h3.6v18.7H60V39.8
			H66v18.7h1.5v-20H60z M51.7,30.8h1.5v27.7h-1.5V30.8z M45.4,30.8h1.5v4h-1.5V30.8z M45.4,38.5h1.5v20h-1.5V38.5z M41,54.8
			c0,1.2,0,2.4,1.3,2.4c0.3,0,0.6,0,1.1-0.1v1.2c-0.4,0.1-0.8,0.2-1.2,0.2c-2.3,0-2.7-1.3-2.7-2.9v-1h-0.1C38.5,56.9,35.8,59,32,59
			c-3.8,0-6.7-1.4-6.7-5.6c0-4.7,4-5.6,7.3-5.9c6.6-0.5,6.9-0.9,6.9-4.2c0-0.9-1-3.9-5.6-3.9c-3.6,0-5.9,1.9-6.1,5.3h-1.5
			c0.2-4.4,2.9-6.6,7.6-6.6c3.5,0,7,1.1,7,5.2L41,54.8L41,54.8z M39.5,47.2c-1.2,1.3-4.3,1.2-7.2,1.6c-3.5,0.4-5.5,1.6-5.5,4.6
			c0,2.4,1.7,4.3,5.2,4.3c6.7,0,7.5-5.7,7.5-6.8L39.5,47.2L39.5,47.2z M20.9,38.7c-0.2-4.7-3.8-7.1-8.9-7.1c-3.1,0-7.6,1.3-7.6,5.9
			c0,4.5,4.7,5.2,9.4,6.2c4.7,1,9.5,2.2,9.5,7.7c0,5.7-5.5,7.8-9.7,7.8c-6.5,0-11.8-2.7-11.7-9.8h1.7c-0.4,6.1,4.5,8.3,10,8.3
			c3.3,0,8-1.5,8-6.3c0-4.7-4.7-5.5-9.5-6.5c-4.7-1-9.4-2.1-9.4-7.4c0-5.3,4.9-7.4,9.3-7.4c5.8,0,10.3,2.5,10.6,8.6L20.9,38.7z"/>
	</g>
</g>
<g id="Layer_3">
</g>
</svg>
