<?xml version="1.0" encoding="utf-8"?>
<!-- Generator: Adobe Illustrator 18.1.1, SVG Export Plug-In . SVG Version: 6.00 Build 0)  -->
<!DOCTYPE svg PUBLIC "-//W3C//DTD SVG 1.1//EN" "http://www.w3.org/Graphics/SVG/1.1/DTD/svg11.dtd">
<svg version="1.1" xmlns="http://www.w3.org/2000/svg" xmlns:xlink="http://www.w3.org/1999/xlink" x="0px" y="0px"
	 viewBox="0 0 50.9 45" enable-background="new 0 0 50.9 45" xml:space="preserve">
<g id="Layer_1" display="none">
</g>
<g id="Layer_2">
	<g>
		<path fill="#EE4942" d="M31.6,15.6v0.8c0,0.1,0,0.2-0.1,0.3c-0.1,0.1-0.2,0.1-0.3,0.1h-1.2v11.4c0,0.7-0.2,1.2-0.6,1.7
			c-0.4,0.5-0.8,0.7-1.4,0.7h-10c-0.5,0-1-0.2-1.4-0.7c-0.4-0.5-0.6-1-0.6-1.7V16.8h-1.2c-0.1,0-0.2,0-0.3-0.1s-0.1-0.2-0.1-0.3
			v-0.8c0-0.1,0-0.2,0.1-0.3s0.2-0.1,0.3-0.1h3.7l0.8-2c0.1-0.3,0.3-0.5,0.6-0.8s0.6-0.3,1-0.3h3.9c0.3,0,0.6,0.1,1,0.3
			c0.3,0.2,0.5,0.5,0.7,0.8l0.8,2h3.7c0.1,0,0.2,0,0.3,0.1C31.6,15.4,31.6,15.5,31.6,15.6z M28.6,28.2V16.8H17.8v11.4
			c0,0.2,0,0.3,0.1,0.5C17.9,28.8,18,29,18,29c0.1,0.1,0.1,0.1,0.1,0.1h10c0,0,0.1,0,0.1-0.1c0.1-0.1,0.1-0.2,0.2-0.3
			C28.5,28.5,28.6,28.4,28.6,28.2z M20.9,19.5v6.9c0,0.1,0,0.2-0.1,0.3s-0.2,0.1-0.3,0.1h-0.8c-0.1,0-0.2,0-0.3-0.1
			s-0.1-0.2-0.1-0.3v-6.9c0-0.1,0-0.2,0.1-0.3s0.2-0.1,0.3-0.1h0.8c0.1,0,0.2,0,0.3,0.1S20.9,19.4,20.9,19.5z M20.5,15.3h5.4
			l-0.6-1.4c-0.1-0.1-0.1-0.1-0.2-0.1h-3.8c-0.1,0-0.1,0.1-0.2,0.1L20.5,15.3z M23.9,19.5v6.9c0,0.1,0,0.2-0.1,0.3s-0.2,0.1-0.3,0.1
			h-0.8c-0.1,0-0.2,0-0.3-0.1s-0.1-0.2-0.1-0.3v-6.9c0-0.1,0-0.2,0.1-0.3s0.2-0.1,0.3-0.1h0.8c0.1,0,0.2,0,0.3,0.1
			S23.9,19.4,23.9,19.5z M27,19.5v6.9c0,0.1,0,0.2-0.1,0.3c-0.1,0.1-0.2,0.1-0.3,0.1h-0.8c-0.1,0-0.2,0-0.3-0.1s-0.1-0.2-0.1-0.3
			v-6.9c0-0.1,0-0.2,0.1-0.3s0.2-0.1,0.3-0.1h0.8c0.1,0,0.2,0,0.3,0.1C27,19.3,27,19.4,27,19.5z"/>
	</g>
</g>
<g id="Layer_3">
</g>
</svg>
